# AST/ASF file generated using VICON BodyLanguage
# -----------------------------------------------
:version 1.10
:name VICON
:units
  mass 1.0
  length 0.45
  angle deg
:documentation
   .ast/.asf automatically generated from VICON data using
   VICON BodyBuilder and BodyLanguage model FoxedUp or BRILLIANT.MOD
:root
   order TX TY TZ RX RY RZ
   axis XYZ
   position 0 0 0  
   orientation 0 0 0 
:bonedata
  begin
     id 1 
     name lhipjoint
     direction 0.535335 -0.74333 0.401095 
     length 2.04549 
     axis 0 0 0  XYZ
  end
  begin
     id 2 
     name lfemur
     direction 0.34202 -0.939693 0  
     length 6.95643  
     axis 0 0 20  XYZ
    dof rx ry rz
    limits (-160.0 20.0)
           (-70.0 70.0)
           (-60.0 70.0)
  end
  begin
     id 3 
     name ltibia
     direction 0.34192 -0.939729 0   
     length 5.55969   
     axis 0 0 20   XYZ
    dof rx
    limits (-10.0 170.0)
  end
  begin
     id 4 
     name lfoot
     direction 0.216943 -0.596046 0.773088   
     length 2.27918   
     axis -90 7.62852e-016 20   XYZ
    dof rx rz
    limits (-45.0 90.0)
           (-70.0 20.0)
  end
  begin
     id 5 
     name ltoes
     direction 1.53519e-011 -4.21748e-011 1   
     length 1.05562   
     axis -90 7.62852e-016 20   XYZ
    dof rx
    limits (-90.0 20.0)
  end
  begin
     id 6 
     name rhipjoint
     direction -0.576368 -0.719173 0.38806   
     length 2.1142  
     axis 0 0 0  XYZ 
  end
  begin
     id 7 
     name rfemur
     direction -0.34202 -0.939693 0   
     length 7.07928   
     axis 0 0 -20   XYZ
    dof rx ry rz
    limits (-160.0 20.0)
           (-70.0 70.0)
           (-70.0 60.0)
  end
  begin
     id 8 
     name rtibia
     direction -0.34202 -0.939693 0   
     length 5.79974   
     axis 0 0 -20   XYZ
    dof rx
    limits (-10.0 170.0)
 end
 begin
     id 9 
     name rfoot
     direction -0.189288 -0.520065 0.832888   
     length 2.42173  
     axis -90 -7.62852e-016 -20   XYZ
    dof rx rz
    limits (-45.0 90.0)
           (-20.0 70.0)
  end
  begin
     id 10 
     name rtoes
     direction -1.53574e-011 -4.21658e-011 1   
     length 1.14469   
     axis -90 -7.62852e-016 -20   XYZ
    dof rx
    limits (-90.0 20.0)
  end
  begin
     id 11 
     name lowerback
     direction -0.00135702 0.993803 0.111144   
     length 1.91308   
     axis 0 0 0   XYZ
    dof rx ry rz
    limits (-20.0 45.0)
           (-30.0 30.0)
           (-30.0 30.0)
  end
  begin
     id 12 
     name upperback
     direction -0.0056745 0.999813 0.0184631   
     length 1.9212   
     axis 0 0 0   XYZ
    dof rx ry rz
    limits (-20.0 45.0)
           (-30.0 30.0)
           (-30.0 30.0)
  end
  begin
     id 13 
     name thorax
     direction -0.00733434 0.999426 -0.0330788   
     length 1.94196   
     axis 0 0 0   XYZ
    dof rx ry rz
    limits (-20.0 45.0)
           (-30.0 30.0)
           (-30.0 30.0)
  end
  begin
     id 14 
     name lowerneck
     direction 0.0563074 0.996944 -0.0541571   
     length 2.34257   
     axis 0 0 0   XYZ
    dof rx ry rz
    limits (-20.0 45.0)
           (-30.0 30.0)
           (-30.0 30.0)
  end
  begin
     id 15 
     name upperneck
     direction -0.0544519 0.976166 -0.210085   
     length 2.32506   
     axis 0 0 0   XYZ
    dof rx ry rz
    limits (-20.0 45.0)
           (-30.0 30.0)
           (-30.0 30.0)
  end
  begin
     id 16
     name head
     direction -0.0226035 0.997615 -0.0652205  
     length 2.3648  
     axis 0 0 0   XYZ
    dof rx ry rz
    limits (-20.0 45.0)
           (-30.0 30.0)
           (-30.0 30.0)
  end
  begin
     id 17 
     name lclavicle
     direction 0.92109 0.381297 -0.0787716  
     length 4.0487  
     axis 0 0 0   XYZ
    dof ry rz
    limits (-20.0 10.0)
           (0.0 20.0)
  end
  begin
     id 18 
     name lhumerus
     direction 1 -4.48986e-011 3.56724e-027   
     length 4.94991   
     axis 180 -30 -90   XYZ
    dof rx ry rz
    limits (-60.0 90.0)
           (-90.0 90.0)
           (-90.0 90.0)
  end
  begin
     id 19
     name lradius
     direction 1 -4.48981e-011 8.62147e-027   
     length 2.7606   
     axis 180 -30 -90   XYZ
    dof rx
    limits (-10.0 170.0)
  end
  begin
     id 20
     name lwrist
     direction 1 -4.48989e-011 1.59799e-026   
     length 1.3803   
     axis -1.17785e-014 90 90   XYZ
    dof ry
    limits (-180.0 0.0)
 end
  begin
     id 21 
     name lhand
     direction 1 -4.48896e-011 3.19599e-026   
     length 0.843936   
     axis -2.03931e-014 90 90   XYZ
    dof rx rz
    limits (-90.0 90.0)
           (-45.0 45.0)
  end
  begin
     id 22 
     name lfingers
     direction 1 -4.48887e-011 6.39197e-026   
     length 0.680403   
     axis -4.07862e-014 90 90   XYZ
    dof rx
    limits (0.0 90.0)
  end
  begin
     id 23
     name lthumb
     direction 0.707107 -6.348e-011 0.707107   
     length 0.976926   
     axis -90 45 2.85299e-015   XYZ
    dof rx rz
    limits (-45.0 45.0)
           (-45.0 45.0)
  end
  begin
     id 24 
     name rclavicle
     direction -0.951104 0.307692 -0.026953   
     length 4.21801  
     axis 0 0 0   XYZ 
    dof ry rz
    limits (-10.0 20.0)
           (-20.0 0.0)
  end
  begin
     id 25 
     name rhumerus
     direction -1 -4.4896e-011 -1.8171e-018  
     length 4.32982   
     axis 180 30 90   XYZ
    dof rx ry rz
    limits (-90.0 60.0)
           (-90.0 90.0)
           (-90.0 90.0)
  end
  begin
     id 26 
     name rradius
     direction -1 -4.48959e-011 8.25165e-027   
     length 3.20057   
     axis 180 30 90   XYZ
    dof rx
    limits (-10.0 170.0)
  end
  begin
     id 27 
     name rwrist
     direction -1 -4.48997e-011 1.59799e-026   
     length 1.60029   
     axis -1.17785e-014 -90 -90   XYZ
    dof ry
    limits (-180.0 0.0)
  end
  begin
     id 28
     name rhand
     direction -1 -4.49023e-011 3.19599e-026   
     length 0.960433   
     axis -2.03931e-014 -90 -90   XYZ
    dof rx rz
    limits (-90.0 90.0)
           (-45.0 45.0)
  end
  begin
     id 29
     name rfingers
     direction -1 -4.48802e-011 6.39197e-026   
     length 0.774326   
     axis -4.07862e-014 -90 -90   XYZ
    dof rx
    limits (0.0 90.0)
  end
  begin
     id 30
     name rthumb
     direction -0.707107 -6.34876e-011 0.707107   
     length 1.11178   
     axis -90 -45 -2.85299e-015   XYZ
    dof rx rz
    limits (-45.0 45.0)
           (-45.0 45.0)
  end
:hierarchy
  begin
    root lhipjoint rhipjoint lowerback
    lhipjoint lfemur
    lfemur ltibia
    ltibia lfoot
    lfoot ltoes
    rhipjoint rfemur
    rfemur rtibia
    rtibia rfoot
    rfoot rtoes
    lowerback upperback
    upperback thorax
    thorax lowerneck lclavicle rclavicle
    lowerneck upperneck
    upperneck head
    lclavicle lhumerus
    lhumerus lradius
    lradius lwrist
    lwrist lhand lthumb
    lhand lfingers
    rclavicle rhumerus
    rhumerus rradius
    rradius rwrist
    rwrist rhand rthumb
    rhand rfingers
end

#!OML:ASF C:\KaitlinTest1\Natural Motions\Nikki\Session 2\Nikki.ASF
:FULLY-SPECIFIED
:DEGREES
282
root -18.9146 16.6309 5.03213 -153.96 85.7656 -163.691
lowerback -13.3273 -1.65553 -0.0719306
upperback -3.9442 -1.97985 -0.553947
thorax 3.3019 -0.907005 -0.847037
lowerneck -2.01724 1.60079 8.4664
upperneck 27.276 3.81518 -5.51849
head 9.10043 2.52503 -2.98215
rclavicle -9.74045e-015 0
rhumerus -42.3781 -22.2534 -79.3001
rradius 18.4259
rwrist 28.8352
rhand -35.9958 3.02295
rfingers 7.12502
rthumb -9.10571 -26.7605
lclavicle -9.74045e-015 0
lhumerus -42.1181 16.0109 80.5326
lradius 23.9
lwrist -39.5488
lhand -33.1215 3.46397
lfingers 7.12502
lthumb -6.33149 33.3493
rfemur -7.57807 -16.5614 20.9616
rtibia 11.0355
rfoot -10.4705 11.7549
rtoes 3.89618e-014
lfemur -9.92338 11.9835 -17.9074
ltibia 9.89642
lfoot -2.13858 -16.712
ltoes 7.95139e-015
283
root -18.9162 16.6323 5.03367 -153.824 85.7208 -163.61
lowerback -13.3517 -1.66769 -0.0655455
upperback -3.96941 -1.99575 -0.539849
thorax 3.28885 -0.91426 -0.838683
lowerneck -1.99722 1.59331 8.46583
upperneck 27.2524 3.80755 -5.53082
head 9.0878 2.52004 -2.98699
rclavicle -7.8023e-015 3.97569e-015
rhumerus -42.4172 -22.3211 -79.2205
rradius 18.4186
rwrist 29.0049
rhand -35.9112 2.90959
rfingers 7.12502
rthumb -9.02415 -26.8774
lclavicle -7.8023e-015 3.97569e-015
lhumerus -42.1743 16.1949 80.3791
lradius 23.8808
lwrist -40.113
lhand -33.1424 3.43839
lfingers 7.12502
lthumb -6.3517 33.3232
rfemur -7.64444 -16.5383 21.0131
rtibia 11.0466
rfoot -10.4842 11.6944
rtoes -6.44062e-014
lfemur -9.99353 11.9501 -17.8814
ltibia 9.88753
lfoot -2.10038 -16.7273
ltoes -4.77083e-015
284
root -18.9144 16.6318 5.03387 -154.003 85.748 -163.797
lowerback -13.3676 -1.6691 -0.0860591
upperback -3.98919 -1.99385 -0.537008
thorax 3.27758 -0.912909 -0.823958
lowerneck -1.98256 1.5964 8.45349
upperneck 27.2849 3.82087 -5.53659
head 9.09742 2.52643 -2.98611
rclavicle -1.64991e-014 -3.97569e-016
rhumerus -42.4453 -22.2922 -79.2065
rradius 18.4239
rwrist 29.0704
rhand -35.9227 2.90468
rfingers 7.12502
rthumb -9.03525 -26.8818
lclavicle -1.64991e-014 -3.97569e-016
lhumerus -42.2132 16.1489 80.4152
lradius 23.9033
lwrist -39.9977
lhand -33.1494 3.46907
lfingers 7.12502
lthumb -6.35841 33.3536
rfemur -7.65486 -16.6288 20.9914
rtibia 11.0583
rfoot -10.5219 11.7991
rtoes -5.64548e-014
lfemur -9.99083 11.9681 -17.9115
ltibia 9.88742
lfoot -2.11002 -16.7022
ltoes 7.95139e-015
285
root -18.9141 16.6313 5.03448 -154.046 85.7611 -163.809
lowerback -13.3639 -1.65568 -0.0804518
upperback -3.97116 -1.97703 -0.552621
thorax 3.29393 -0.904895 -0.84097
lowerneck -1.97274 1.59192 8.4905
upperneck 27.2606 3.81176 -5.5482
head 9.08723 2.52411 -2.99723
rclavicle 2.62644e-014 1.98785e-015
rhumerus -42.4458 -22.3635 -79.1793
rradius 18.3779
rwrist 29.0789
rhand -35.9795 2.99598
rfingers 7.12502
rthumb -9.09005 -26.7881
lclavicle 2.62644e-014 1.98785e-015
lhumerus -42.1778 16.076 80.4658
lradius 23.9451
lwrist -39.749
lhand -33.0691 3.49952
lfingers 7.12502
lthumb -6.28096 33.3864
rfemur -7.63066 -16.645 20.9778
rtibia 11.068
rfoot -10.5243 11.8237
rtoes 3.81667e-014
lfemur -9.95141 11.9781 -17.9132
ltibia 9.88628
lfoot -2.11236 -16.7043
ltoes -2.70347e-014
286
root -18.917 16.6313 5.03648 -154.206 85.7249 -163.994
lowerback -13.3485 -1.67066 -0.0968208
upperback -3.99416 -1.99453 -0.536713
thorax 3.26245 -0.913293 -0.817037
lowerneck -1.96589 1.58885 8.44226
upperneck 27.2804 3.81194 -5.53096
head 9.09162 2.5222 -2.98305
rclavicle -1.62755e-014 -1.35174e-014
rhumerus -42.4575 -22.22 -79.2351
rradius 18.4134
rwrist 28.9275
rhand -35.9943 2.9865
rfingers 7.12502
rthumb -9.10433 -26.797
lclavicle -1.62755e-014 -1.35174e-014
lhumerus -42.2149 16.1632 80.4076
lradius 23.8911
lwrist -40.0805
lhand -33.1472 3.51293
lfingers 7.12502
lthumb -6.35632 33.3976
rfemur -7.67447 -16.7219 21.0133
rtibia 11.088
rfoot -10.5725 11.8517
rtoes -3.18055e-015
lfemur -9.99268 11.9417 -17.9069
ltibia 9.87603
lfoot -2.09525 -16.7211
ltoes -4.77083e-015
287
root -18.9175 16.632 5.03799 -154.13 85.7183 -163.941
lowerback -13.3749 -1.66844 -0.0992209
upperback -3.98043 -1.99111 -0.543672
thorax 3.29097 -0.911606 -0.823447
lowerneck -2.01386 1.58715 8.45425
upperneck 27.2639 3.79446 -5.51144
head 9.09343 2.51456 -2.97929
rclavicle 1.25234e-014 -1.19271e-015
rhumerus -42.3894 -22.1796 -79.3463
rradius 18.4314
rwrist 28.7491
rhand -35.9631 2.86675
rfingers 7.12502
rthumb -9.07415 -26.9181
lclavicle 1.25234e-014 -1.19271e-015
lhumerus -42.1456 16.1204 80.4311
lradius 23.876
lwrist -40.013
lhand -33.1606 3.50289
lfingers 7.12502
lthumb -6.36924 33.3871
rfemur -7.71726 -16.661 21.0234
rtibia 11.1057
rfoot -10.5057 11.8057
rtoes 1.11319e-014
lfemur -10.0161 11.9394 -17.8995
ltibia 9.86092
lfoot -2.06182 -16.7319
ltoes 0
288
root -18.9181 16.6321 5.03872 -153.954 85.7148 -163.77
lowerback -13.3729 -1.66227 -0.0854882
upperback -3.98974 -1.98469 -0.537306
thorax 3.27999 -0.908284 -0.823283
lowerneck -2.00845 1.5782 8.44307
upperneck 27.2809 3.78508 -5.5082
head 9.09734 2.51033 -2.97722
rclavicle -2.06736e-014 -1.66979e-014
rhumerus -42.419 -22.2289 -79.2884
rradius 18.4163
rwrist 28.8049
rhand -35.9945 2.97499
rfingers 7.12502
rthumb -9.10446 -26.8085
lclavicle -2.06736e-014 -1.66979e-014
lhumerus -42.16 16.1505 80.4143
lradius 23.891
lwrist -40.0177
lhand -33.1907 3.42564
lfingers 7.12502
lthumb -6.39831 33.309
rfemur -7.72287 -16.6641 21.0435
rtibia 11.1016
rfoot -10.5054 11.8018
rtoes -1.00983e-013
lfemur -10.0282 11.942 -17.8881
ltibia 9.87225
lfoot -2.05749 -16.7097
ltoes -4.29375e-014
289
root -18.9173 16.6318 5.03906 -154.14 85.7294 -163.933
lowerback -13.3478 -1.65774 -0.0899938
upperback -3.98987 -1.97789 -0.551282
thorax 3.26601 -0.905116 -0.833497
lowerneck -1.98171 1.57419 8.46383
upperneck 27.2519 3.77917 -5.51645
head 9.08219 2.50858 -2.98417
rclavicle 1.02623e-014 -3.97569e-015
rhumerus -42.4438 -22.3604 -79.2029
rradius 18.353
rwrist 28.9443
rhand -36.0519 3.09639
rfingers 7.12502
rthumb -9.15984 -26.6847
lclavicle 1.02623e-014 -3.97569e-015
lhumerus -42.1714 16.1535 80.3734
lradius 23.9201
lwrist -40.2216
lhand -33.0432 3.5658
lfingers 7.12502
lthumb -6.25593 33.4534
rfemur -7.69217 -16.7155 21.0177
rtibia 11.0932
rfoot -10.5383 11.8719
rtoes 4.45278e-014
lfemur -9.99865 11.9487 -17.9017
ltibia 9.87354
lfoot -2.07066 -16.7149
ltoes -6.36111e-014
290
root -18.9171 16.6318 5.04028 -153.8 85.7087 -163.592
lowerback -13.362 -1.65119 -0.0570462
upperback -3.98131 -1.97403 -0.545139
thorax 3.28177 -0.903202 -0.845614
lowerneck -2.00332 1.56744 8.44903
upperneck 27.2614 3.76424 -5.49586
head 9.0878 2.50171 -2.97561
rclavicle -8.54774e-015 -3.18055e-015
rhumerus -42.4112 -22.3229 -79.2596
rradius 18.3651
rwrist 28.848
rhand -36.0201 2.9541
rfingers 7.12502
rthumb -9.12919 -26.8283
lclavicle -8.54774e-015 -3.18055e-015
lhumerus -42.1274 16.1123 80.4223
lradius 23.8897
lwrist -39.9769
lhand -33.1526 3.49885
lfingers 7.12502
lthumb -6.3615 33.3833
rfemur -7.68891 -16.68 21.0566
rtibia 11.0985
rfoot -10.5353 11.8268
rtoes 8.74653e-015
lfemur -10.0053 11.9432 -17.8581
ltibia 9.87704
lfoot -2.0627 -16.7251
ltoes 1.90833e-014
